# Blender v2.92.0 OBJ File: 'floor.blend'
# www.blender.org
mtllib floor.mtl
o Cube_Cube.001
v -2.500000 0.000000 2.500000
v -2.500000 0.100000 2.500000
v -2.500000 0.000000 -2.500000
v -2.500000 0.100000 -2.500000
v 2.500000 0.000000 2.500000
v 2.500000 0.100000 2.500000
v 2.500000 0.000000 -2.500000
v 2.500000 0.100000 -2.500000
vt 0.120799 -1.097440
vt 0.919519 -1.097440
vt 0.919519 -0.298720
vt 0.120799 -0.298720
vt 0.919519 0.500000
vt 0.120799 0.500000
vt 0.919519 1.298720
vt 0.120799 1.298720
vt 0.919519 2.097440
vt 0.120799 2.097440
vt -0.677921 0.500000
vt -0.677921 1.298720
vt -0.020429 0.003544
vt 0.974932 0.003544
vt 0.974932 0.998906
vt -0.020429 0.998906
vn -1.0000 0.0000 0.0000
vn 0.0000 0.0000 -1.0000
vn 1.0000 0.0000 0.0000
vn 0.0000 0.0000 1.0000
vn 0.0000 -1.0000 0.0000
vn 0.0000 1.0000 0.0000
g Cube_Cube.001_sztaki_picture
usemtl sztaki_picture
s off
f 1/1/1 2/2/1 4/3/1 3/4/1
f 3/4/2 4/3/2 8/5/2 7/6/2
f 7/6/3 8/5/3 6/7/3 5/8/3
f 5/8/4 6/7/4 2/9/4 1/10/4
f 3/11/5 7/6/5 5/8/5 1/12/5
f 8/13/6 4/14/6 2/15/6 6/16/6
